<svg width="240" height="60" viewBox="0 0 240 60" fill="none" xmlns="http://www.w3.org/2000/svg">
<mask id="path-1-outside-1_24_242" maskUnits="userSpaceOnUse" x="4" y="13" width="235" height="37" fill="black">
<rect fill="white" x="4" y="13" width="235" height="37"/>
<path d="M24.68 29.6C24.4933 29.3867 24.3867 29.1467 24.36 28.88C24.36 28.5867 24.4533 28.3467 24.64 28.16L31.44 20.96L6.44 22.96C6.17333 22.9867 5.93333 22.9067 5.72 22.72C5.50667 22.5333 5.38667 22.3067 5.36 22.04C5.33333 21.7467 5.41333 21.5067 5.6 21.32C5.78667 21.1067 6.01333 20.9867 6.28 20.96L33.92 18.76C34.4 18.7067 34.72 18.8933 34.88 19.32C35.0933 19.6933 35.04 20.0667 34.72 20.44L26.12 29.56C25.9333 29.7467 25.6933 29.8533 25.4 29.88C25.1333 29.88 24.8933 29.7867 24.68 29.6ZM12.28 47.32C12.0667 47.48 11.8133 47.5333 11.52 47.48C11.2533 47.4533 11.04 47.32 10.88 47.08C10.72 46.8667 10.6667 46.6267 10.72 46.36C10.7733 46.0667 10.9067 45.84 11.12 45.68C12.6933 44.5867 14.0533 43.1733 15.2 41.44C16.3467 39.68 17.2267 37.7067 17.84 35.52C18.4533 33.3333 18.76 31.04 18.76 28.64V26.16C18.76 25.8667 18.8667 25.6267 19.08 25.44C19.2933 25.2533 19.5333 25.16 19.8 25.16C20.0667 25.16 20.2933 25.2533 20.48 25.44C20.6933 25.6267 20.8 25.8667 20.8 26.16V28.64C20.8 31.2533 20.4533 33.76 19.76 36.16C19.0667 38.5333 18.08 40.68 16.8 42.6C15.5467 44.52 14.04 46.0933 12.28 47.32ZM72.04 47.24C71.7733 47.24 71.5333 47.1467 71.32 46.96C71.1333 46.7467 71.04 46.5067 71.04 46.24V27.76C68.7733 29.92 66.3733 31.8933 63.84 33.68C61.3333 35.44 58.9333 36.92 56.64 38.12C56.4 38.2267 56.1467 38.2533 55.88 38.2C55.6133 38.12 55.4133 37.9467 55.28 37.68C55.1733 37.44 55.16 37.1867 55.24 36.92C55.32 36.6533 55.48 36.4533 55.72 36.32C57.6133 35.3333 59.5733 34.1467 61.6 32.76C63.6533 31.3733 65.6667 29.8267 67.64 28.12C69.64 26.4133 71.4667 24.6133 73.12 22.72C74.8 20.8267 76.2 18.8933 77.32 16.92C77.4533 16.6533 77.6533 16.4933 77.92 16.44C78.1867 16.36 78.44 16.3867 78.68 16.52C78.92 16.6533 79.08 16.8533 79.16 17.12C79.24 17.3867 79.2133 17.64 79.08 17.88C78.3067 19.24 77.4 20.5867 76.36 21.92C75.3467 23.2267 74.24 24.5067 73.04 25.76V46.24C73.04 46.5067 72.9467 46.7467 72.76 46.96C72.5733 47.1467 72.3333 47.24 72.04 47.24ZM112.2 48.2C111.96 48.3333 111.707 48.36 111.44 48.28C111.173 48.2 110.973 48.04 110.84 47.8C110.733 47.5333 110.72 47.2667 110.8 47C110.88 46.7333 111.04 46.5467 111.28 46.44C113.013 45.56 114.733 44.4267 116.44 43.04C118.173 41.6533 119.827 40.1067 121.4 38.4C123 36.6667 124.44 34.8667 125.72 33C127.027 31.1067 128.12 29.2133 129 27.32L109.2 29.68C108.933 29.7067 108.68 29.6267 108.44 29.44C108.227 29.2533 108.107 29.0267 108.08 28.76C108.053 28.4933 108.12 28.2533 108.28 28.04C108.467 27.8 108.693 27.6667 108.96 27.64L130.52 25.12C130.867 25.0933 131.173 25.2267 131.44 25.52C131.653 25.8133 131.693 26.1333 131.56 26.48C130.733 28.6133 129.627 30.76 128.24 32.92C126.853 35.0533 125.293 37.0933 123.56 39.04C121.827 40.9867 119.987 42.7467 118.04 44.32C116.12 45.8933 114.173 47.1867 112.2 48.2ZM113.36 20.8C113.093 20.8267 112.853 20.76 112.64 20.6C112.427 20.4133 112.293 20.1867 112.24 19.92C112.213 19.6267 112.293 19.3733 112.48 19.16C112.667 18.9467 112.893 18.8267 113.16 18.8L125.76 17.4C126.053 17.3733 126.307 17.4533 126.52 17.64C126.733 17.8 126.853 18.0267 126.88 18.32C126.907 18.5867 126.827 18.8267 126.64 19.04C126.48 19.2533 126.253 19.3867 125.96 19.44L113.36 20.8ZM163.4 47.08C163.16 47.1867 162.92 47.1867 162.68 47.08C162.467 47 162.307 46.84 162.2 46.6C162.093 46.3867 162.093 46.1733 162.2 45.96C162.307 45.72 162.467 45.5467 162.68 45.44C165.32 44.32 167.693 42.84 169.8 41C171.933 39.1333 173.707 37 175.12 34.6C176.56 32.2 177.547 29.6533 178.08 26.96C178.133 26.72 178.267 26.5333 178.48 26.4C178.693 26.24 178.92 26.1867 179.16 26.24C179.4 26.2933 179.587 26.4267 179.72 26.64C179.88 26.8533 179.933 27.08 179.88 27.32C179.293 30.2 178.227 32.92 176.68 35.48C175.16 38.04 173.267 40.32 171 42.32C168.733 44.32 166.2 45.9067 163.4 47.08ZM170.24 33.6C170 33.68 169.773 33.6667 169.56 33.56C169.347 33.4267 169.2 33.24 169.12 33L167.24 26.44C167.187 26.1733 167.213 25.9333 167.32 25.72C167.453 25.5067 167.64 25.3733 167.88 25.32C168.12 25.24 168.347 25.2667 168.56 25.4C168.8 25.5067 168.947 25.68 169 25.92L170.88 32.48C170.933 32.72 170.893 32.96 170.76 33.2C170.653 33.4133 170.48 33.5467 170.24 33.6ZM165 35.36C164.787 35.4933 164.56 35.5333 164.32 35.48C164.08 35.4 163.893 35.2533 163.76 35.04L160.44 29.16C160.333 28.9467 160.307 28.72 160.36 28.48C160.44 28.24 160.573 28.0533 160.76 27.92C160.973 27.7867 161.2 27.76 161.44 27.84C161.707 27.92 161.893 28.0667 162 28.28L165.36 34.12C165.493 34.3333 165.52 34.56 165.44 34.8C165.36 35.04 165.213 35.2267 165 35.36ZM218.08 48C217.813 48 217.573 47.8933 217.36 47.68C217.147 47.4667 217.04 47.2267 217.04 46.96V16.56C217.04 16.2667 217.147 16.0267 217.36 15.84C217.573 15.6533 217.813 15.56 218.08 15.56C218.347 15.56 218.573 15.6533 218.76 15.84C218.973 16.0267 219.08 16.2667 219.08 16.56V26.68C220.307 27.2133 221.64 27.9067 223.08 28.76C224.52 29.5867 225.92 30.4533 227.28 31.36C228.64 32.24 229.787 33.0533 230.72 33.8C230.933 33.9867 231.053 34.2133 231.08 34.48C231.133 34.7467 231.067 34.9867 230.88 35.2C230.72 35.4133 230.493 35.5467 230.2 35.6C229.933 35.6267 229.693 35.56 229.48 35.4C228.653 34.7333 227.64 34.0133 226.44 33.24C225.24 32.44 224 31.6533 222.72 30.88C221.44 30.1067 220.227 29.44 219.08 28.88V46.96C219.08 47.2267 218.973 47.4667 218.76 47.68C218.573 47.8933 218.347 48 218.08 48ZM236.28 21.56L230.4 15.72C230.24 15.56 230.16 15.36 230.16 15.12C230.16 14.88 230.24 14.68 230.4 14.52C230.827 14.1467 231.24 14.1467 231.64 14.52L237.48 20.32C237.853 20.72 237.853 21.1333 237.48 21.56C237.32 21.72 237.08 21.76 236.76 21.68C236.44 21.6 236.28 21.56 236.28 21.56ZM233 24.68L227.16 18.84C227 18.68 226.92 18.4933 226.92 18.28C226.92 18.04 227 17.8267 227.16 17.64C227.32 17.48 227.52 17.4 227.76 17.4C228 17.4 228.2 17.48 228.36 17.64L234.24 23.48C234.4 23.64 234.48 23.84 234.48 24.08C234.48 24.2933 234.4 24.4933 234.24 24.68C233.84 25.0533 233.427 25.0533 233 24.68Z"/>
</mask>
<path d="M24.68 29.6C24.4933 29.3867 24.3867 29.1467 24.36 28.88C24.36 28.5867 24.4533 28.3467 24.64 28.16L31.44 20.96L6.44 22.96C6.17333 22.9867 5.93333 22.9067 5.72 22.72C5.50667 22.5333 5.38667 22.3067 5.36 22.04C5.33333 21.7467 5.41333 21.5067 5.6 21.32C5.78667 21.1067 6.01333 20.9867 6.28 20.96L33.92 18.76C34.4 18.7067 34.72 18.8933 34.88 19.32C35.0933 19.6933 35.04 20.0667 34.72 20.44L26.12 29.56C25.9333 29.7467 25.6933 29.8533 25.4 29.88C25.1333 29.88 24.8933 29.7867 24.68 29.6ZM12.28 47.32C12.0667 47.48 11.8133 47.5333 11.52 47.48C11.2533 47.4533 11.04 47.32 10.88 47.08C10.72 46.8667 10.6667 46.6267 10.72 46.36C10.7733 46.0667 10.9067 45.84 11.12 45.68C12.6933 44.5867 14.0533 43.1733 15.2 41.44C16.3467 39.68 17.2267 37.7067 17.84 35.52C18.4533 33.3333 18.76 31.04 18.76 28.64V26.16C18.76 25.8667 18.8667 25.6267 19.08 25.44C19.2933 25.2533 19.5333 25.16 19.8 25.16C20.0667 25.16 20.2933 25.2533 20.48 25.44C20.6933 25.6267 20.8 25.8667 20.8 26.16V28.64C20.8 31.2533 20.4533 33.76 19.76 36.16C19.0667 38.5333 18.08 40.68 16.8 42.6C15.5467 44.52 14.04 46.0933 12.28 47.32ZM72.04 47.24C71.7733 47.24 71.5333 47.1467 71.32 46.96C71.1333 46.7467 71.04 46.5067 71.04 46.24V27.76C68.7733 29.92 66.3733 31.8933 63.84 33.68C61.3333 35.44 58.9333 36.92 56.64 38.12C56.4 38.2267 56.1467 38.2533 55.88 38.2C55.6133 38.12 55.4133 37.9467 55.28 37.68C55.1733 37.44 55.16 37.1867 55.24 36.92C55.32 36.6533 55.48 36.4533 55.72 36.32C57.6133 35.3333 59.5733 34.1467 61.6 32.76C63.6533 31.3733 65.6667 29.8267 67.64 28.12C69.64 26.4133 71.4667 24.6133 73.12 22.72C74.8 20.8267 76.2 18.8933 77.32 16.92C77.4533 16.6533 77.6533 16.4933 77.92 16.44C78.1867 16.36 78.44 16.3867 78.68 16.52C78.92 16.6533 79.08 16.8533 79.16 17.12C79.24 17.3867 79.2133 17.64 79.08 17.88C78.3067 19.24 77.4 20.5867 76.36 21.92C75.3467 23.2267 74.24 24.5067 73.04 25.76V46.24C73.04 46.5067 72.9467 46.7467 72.76 46.96C72.5733 47.1467 72.3333 47.24 72.04 47.24ZM112.2 48.2C111.96 48.3333 111.707 48.36 111.44 48.28C111.173 48.2 110.973 48.04 110.84 47.8C110.733 47.5333 110.72 47.2667 110.8 47C110.88 46.7333 111.04 46.5467 111.28 46.44C113.013 45.56 114.733 44.4267 116.44 43.04C118.173 41.6533 119.827 40.1067 121.4 38.4C123 36.6667 124.44 34.8667 125.72 33C127.027 31.1067 128.12 29.2133 129 27.32L109.2 29.68C108.933 29.7067 108.68 29.6267 108.44 29.44C108.227 29.2533 108.107 29.0267 108.08 28.76C108.053 28.4933 108.12 28.2533 108.28 28.04C108.467 27.8 108.693 27.6667 108.96 27.64L130.52 25.12C130.867 25.0933 131.173 25.2267 131.44 25.52C131.653 25.8133 131.693 26.1333 131.56 26.48C130.733 28.6133 129.627 30.76 128.24 32.92C126.853 35.0533 125.293 37.0933 123.56 39.04C121.827 40.9867 119.987 42.7467 118.04 44.32C116.12 45.8933 114.173 47.1867 112.2 48.2ZM113.36 20.8C113.093 20.8267 112.853 20.76 112.64 20.6C112.427 20.4133 112.293 20.1867 112.24 19.92C112.213 19.6267 112.293 19.3733 112.48 19.16C112.667 18.9467 112.893 18.8267 113.16 18.8L125.76 17.4C126.053 17.3733 126.307 17.4533 126.52 17.64C126.733 17.8 126.853 18.0267 126.88 18.32C126.907 18.5867 126.827 18.8267 126.64 19.04C126.48 19.2533 126.253 19.3867 125.96 19.44L113.36 20.8ZM163.4 47.08C163.16 47.1867 162.92 47.1867 162.68 47.08C162.467 47 162.307 46.84 162.2 46.6C162.093 46.3867 162.093 46.1733 162.2 45.96C162.307 45.72 162.467 45.5467 162.68 45.44C165.32 44.32 167.693 42.84 169.8 41C171.933 39.1333 173.707 37 175.12 34.6C176.56 32.2 177.547 29.6533 178.08 26.96C178.133 26.72 178.267 26.5333 178.48 26.4C178.693 26.24 178.92 26.1867 179.16 26.24C179.4 26.2933 179.587 26.4267 179.72 26.64C179.88 26.8533 179.933 27.08 179.88 27.32C179.293 30.2 178.227 32.92 176.68 35.48C175.16 38.04 173.267 40.32 171 42.32C168.733 44.32 166.2 45.9067 163.4 47.08ZM170.24 33.6C170 33.68 169.773 33.6667 169.56 33.56C169.347 33.4267 169.2 33.24 169.12 33L167.24 26.44C167.187 26.1733 167.213 25.9333 167.32 25.72C167.453 25.5067 167.64 25.3733 167.88 25.32C168.12 25.24 168.347 25.2667 168.56 25.4C168.8 25.5067 168.947 25.68 169 25.92L170.88 32.48C170.933 32.72 170.893 32.96 170.76 33.2C170.653 33.4133 170.48 33.5467 170.24 33.6ZM165 35.36C164.787 35.4933 164.56 35.5333 164.32 35.48C164.08 35.4 163.893 35.2533 163.76 35.04L160.44 29.16C160.333 28.9467 160.307 28.72 160.36 28.48C160.44 28.24 160.573 28.0533 160.76 27.92C160.973 27.7867 161.2 27.76 161.44 27.84C161.707 27.92 161.893 28.0667 162 28.28L165.36 34.12C165.493 34.3333 165.52 34.56 165.44 34.8C165.36 35.04 165.213 35.2267 165 35.36ZM218.08 48C217.813 48 217.573 47.8933 217.36 47.68C217.147 47.4667 217.04 47.2267 217.04 46.96V16.56C217.04 16.2667 217.147 16.0267 217.36 15.84C217.573 15.6533 217.813 15.56 218.08 15.56C218.347 15.56 218.573 15.6533 218.76 15.84C218.973 16.0267 219.08 16.2667 219.08 16.56V26.68C220.307 27.2133 221.64 27.9067 223.08 28.76C224.52 29.5867 225.92 30.4533 227.28 31.36C228.64 32.24 229.787 33.0533 230.72 33.8C230.933 33.9867 231.053 34.2133 231.08 34.48C231.133 34.7467 231.067 34.9867 230.88 35.2C230.72 35.4133 230.493 35.5467 230.2 35.6C229.933 35.6267 229.693 35.56 229.48 35.4C228.653 34.7333 227.64 34.0133 226.44 33.24C225.24 32.44 224 31.6533 222.72 30.88C221.44 30.1067 220.227 29.44 219.08 28.88V46.96C219.08 47.2267 218.973 47.4667 218.76 47.68C218.573 47.8933 218.347 48 218.08 48ZM236.28 21.56L230.4 15.72C230.24 15.56 230.16 15.36 230.16 15.12C230.16 14.88 230.24 14.68 230.4 14.52C230.827 14.1467 231.24 14.1467 231.64 14.52L237.48 20.32C237.853 20.72 237.853 21.1333 237.48 21.56C237.32 21.72 237.08 21.76 236.76 21.68C236.44 21.6 236.28 21.56 236.28 21.56ZM233 24.68L227.16 18.84C227 18.68 226.92 18.4933 226.92 18.28C226.92 18.04 227 17.8267 227.16 17.64C227.32 17.48 227.52 17.4 227.76 17.4C228 17.4 228.2 17.48 228.36 17.64L234.24 23.48C234.4 23.64 234.48 23.84 234.48 24.08C234.48 24.2933 234.4 24.4933 234.24 24.68C233.84 25.0533 233.427 25.0533 233 24.68Z" fill="#0E9698"/>
<path d="M24.68 29.6L23.9274 30.2585L23.9713 30.3087L24.0215 30.3526L24.68 29.6ZM24.36 28.88H23.36V28.9299L23.365 28.9795L24.36 28.88ZM24.64 28.16L25.3471 28.8671L25.3572 28.857L25.367 28.8466L24.64 28.16ZM31.44 20.96L32.167 21.6466L33.9528 19.7558L31.3603 19.9632L31.44 20.96ZM6.44 22.96L6.36026 21.9632L6.35037 21.964L6.3405 21.965L6.44 22.96ZM5.72 22.72L6.37851 21.9674L6.3785 21.9674L5.72 22.72ZM5.36 22.04L4.36407 22.1305L4.36496 22.1395L5.36 22.04ZM5.6 21.32L6.30711 22.0271L6.33065 22.0036L6.35258 21.9785L5.6 21.32ZM6.28 20.96L6.20066 19.9632L6.19057 19.964L6.1805 19.965L6.28 20.96ZM33.92 18.76L33.9993 19.7568L34.0149 19.7556L34.0304 19.7539L33.92 18.76ZM34.88 19.32L33.9437 19.6711L33.9719 19.7464L34.0118 19.8161L34.88 19.32ZM34.72 20.44L35.4475 21.1261L35.4638 21.1088L35.4793 21.0908L34.72 20.44ZM26.12 29.56L26.8271 30.2671L26.8375 30.2567L26.8475 30.2461L26.12 29.56ZM25.4 29.88V30.88H25.4454L25.4905 30.8759L25.4 29.88ZM12.28 47.32L11.7082 46.4996L11.6939 46.5096L11.68 46.52L12.28 47.32ZM11.52 47.48L11.6989 46.4961L11.6594 46.489L11.6195 46.485L11.52 47.48ZM10.88 47.08L11.7121 46.5253L11.6967 46.5022L11.68 46.48L10.88 47.08ZM10.72 46.36L11.7006 46.5561L11.7023 46.5475L11.7039 46.5389L10.72 46.36ZM11.12 45.68L10.5493 44.8588L10.5345 44.8691L10.52 44.88L11.12 45.68ZM15.2 41.44L16.034 41.9917L16.0379 41.9859L15.2 41.44ZM17.84 35.52L18.8028 35.7901L18.8028 35.7901L17.84 35.52ZM19.08 25.44L18.4215 24.6874L18.4215 24.6874L19.08 25.44ZM20.48 25.44L19.7729 26.1471L19.7964 26.1707L19.8215 26.1926L20.48 25.44ZM19.76 36.16L20.7199 36.4404L20.7207 36.4375L19.76 36.16ZM16.8 42.6L15.9679 42.0453L15.9626 42.0534L16.8 42.6ZM25.4326 28.9415C25.3745 28.8751 25.3598 28.8278 25.355 28.7805L23.365 28.9795C23.4136 29.4655 23.6121 29.8982 23.9274 30.2585L25.4326 28.9415ZM25.36 28.88C25.36 28.8597 25.3616 28.8476 25.3625 28.8424C25.3634 28.8373 25.3638 28.8379 25.362 28.8424C25.3602 28.8471 25.3573 28.8529 25.3535 28.8587C25.3498 28.8643 25.3471 28.8672 25.3471 28.8671L23.9329 27.4529C23.537 27.8488 23.36 28.3537 23.36 28.88H25.36ZM25.367 28.8466L32.167 21.6466L30.713 20.2734L23.913 27.4734L25.367 28.8466ZM31.3603 19.9632L6.36026 21.9632L6.51975 23.9568L31.5197 21.9568L31.3603 19.9632ZM6.3405 21.965C6.33822 21.9652 6.34173 21.9647 6.34969 21.9655C6.35782 21.9663 6.3671 21.9683 6.37623 21.9713C6.38526 21.9743 6.39069 21.9773 6.39202 21.9781C6.39314 21.9787 6.38848 21.9762 6.37851 21.9674L5.06149 23.4726C5.46957 23.8296 5.98015 24.011 6.5395 23.955L6.3405 21.965ZM6.3785 21.9674C6.36576 21.9563 6.35894 21.9485 6.35591 21.9447C6.35299 21.9411 6.35282 21.9403 6.35379 21.9421C6.35479 21.944 6.35562 21.9461 6.35604 21.9475C6.35643 21.9488 6.35568 21.9469 6.35504 21.9405L4.36496 22.1395C4.41844 22.6743 4.66931 23.1294 5.0615 23.4726L6.3785 21.9674ZM6.35589 21.9495C6.35302 21.9178 6.35889 21.9256 6.34868 21.9562C6.34383 21.9708 6.33679 21.9859 6.328 22C6.31929 22.0139 6.31132 22.0229 6.30711 22.0271L4.89289 20.6129C4.47043 21.0354 4.31408 21.5802 4.36411 22.1305L6.35589 21.9495ZM6.35258 21.9785C6.36373 21.9658 6.3715 21.9589 6.37525 21.9559C6.37887 21.953 6.37971 21.9528 6.37789 21.9538C6.376 21.9548 6.37388 21.9556 6.37247 21.956C6.37116 21.9564 6.37308 21.9557 6.3795 21.955L6.1805 19.965C5.64574 20.0184 5.19059 20.2693 4.84742 20.6615L6.35258 21.9785ZM6.35934 21.9568L33.9993 19.7568L33.8407 17.7632L6.20066 19.9632L6.35934 21.9568ZM34.0304 19.7539C34.0758 19.7488 34.0918 19.7524 34.0856 19.7514C34.0773 19.75 34.0504 19.7438 34.0161 19.7238C33.9812 19.7034 33.9565 19.6792 33.9425 19.6613C33.93 19.6454 33.9335 19.6441 33.9437 19.6711L35.8163 18.9689C35.6747 18.5911 35.4253 18.2304 35.0239 17.9962C34.629 17.7659 34.1982 17.7229 33.8096 17.7661L34.0304 19.7539ZM34.0118 19.8161C34.0204 19.8313 34.0163 19.8286 34.0122 19.8095C34.0102 19.8003 34.0086 19.7888 34.0081 19.7757C34.0077 19.7626 34.0084 19.75 34.0101 19.7386C34.0135 19.7148 34.0193 19.7054 34.0156 19.7128C34.0113 19.7214 33.9967 19.7473 33.9607 19.7892L35.4793 21.0908C35.7261 20.8029 35.9293 20.4456 35.99 20.0214C36.0524 19.5843 35.949 19.1752 35.7482 18.8239L34.0118 19.8161ZM33.9925 19.7539L25.3925 28.8739L26.8475 30.2461L35.4475 21.1261L33.9925 19.7539ZM25.4129 28.8529C25.4059 28.8599 25.4011 28.863 25.3939 28.8662C25.3852 28.87 25.3603 28.8795 25.3095 28.8841L25.4905 30.8759C25.9881 30.8307 26.4557 30.6385 26.8271 30.2671L25.4129 28.8529ZM25.4 28.88C25.392 28.88 25.3877 28.8793 25.3862 28.879C25.3847 28.8788 25.3838 28.8785 25.3824 28.878C25.3812 28.8775 25.3665 28.8719 25.3385 28.8474L24.0215 30.3526C24.4046 30.6878 24.875 30.88 25.4 30.88V28.88ZM11.68 46.52C11.6817 46.5187 11.6874 46.5148 11.6967 46.5105C11.7062 46.5062 11.7157 46.5032 11.724 46.5015C11.7321 46.4998 11.7354 46.5 11.7325 46.5C11.7293 46.5 11.7185 46.4997 11.6989 46.4961L11.3411 48.4639C11.8726 48.5605 12.4164 48.4677 12.88 48.12L11.68 46.52ZM11.6195 46.485C11.6222 46.4852 11.6319 46.4865 11.6462 46.4913C11.6608 46.4962 11.6759 46.5032 11.69 46.512C11.7201 46.5308 11.7248 46.5445 11.7121 46.5253L10.048 47.6347C10.3595 48.102 10.831 48.4161 11.4205 48.475L11.6195 46.485ZM11.68 46.48C11.6782 46.4775 11.6808 46.4806 11.6848 46.4892C11.689 46.498 11.6932 46.5097 11.6962 46.5231C11.6992 46.5364 11.7 46.5476 11.7 46.555C11.7 46.5621 11.6992 46.5629 11.7006 46.5561L9.73942 46.1639C9.63155 46.7032 9.74548 47.234 10.08 47.68L11.68 46.48ZM11.7039 46.5389C11.7081 46.5154 11.7128 46.4997 11.7162 46.4904C11.7195 46.4812 11.7218 46.4773 11.7219 46.477C11.722 46.4769 11.7212 46.4783 11.7196 46.48C11.718 46.4818 11.7177 46.4818 11.72 46.48L10.52 44.88C10.0807 45.2095 9.82881 45.6714 9.73613 46.1811L11.7039 46.5389ZM11.6907 46.5012C13.3766 45.3296 14.8234 43.8218 16.034 41.9917L14.366 40.8883C13.2833 42.5249 12.0101 43.8437 10.5493 44.8588L11.6907 46.5012ZM16.0379 41.9859C17.2443 40.1342 18.1643 38.0666 18.8028 35.7901L16.8772 35.2499C16.289 37.3468 15.4491 39.2258 14.3621 40.8941L16.0379 41.9859ZM18.8028 35.7901C19.4422 33.5106 19.76 31.1261 19.76 28.64H17.76C17.76 30.9539 17.4645 33.156 16.8772 35.2499L18.8028 35.7901ZM19.76 28.64V26.16H17.76V28.64H19.76ZM19.76 26.16C19.76 26.1474 19.7611 26.1434 19.7606 26.1461C19.76 26.1491 19.7581 26.1565 19.7538 26.1661C19.7495 26.1759 19.7444 26.1841 19.74 26.19C19.7357 26.1957 19.7342 26.1963 19.7385 26.1926L18.4215 24.6874C17.9827 25.0714 17.76 25.5898 17.76 26.16H19.76ZM19.7385 26.1926C19.7665 26.1681 19.7812 26.1625 19.7824 26.162C19.7838 26.1615 19.7847 26.1612 19.7862 26.161C19.7877 26.1607 19.792 26.16 19.8 26.16V24.16C19.275 24.16 18.8046 24.3522 18.4215 24.6874L19.7385 26.1926ZM19.8 26.16C19.8081 26.16 19.8099 26.1607 19.8066 26.1601C19.8031 26.1594 19.7969 26.1578 19.7893 26.1547C19.7816 26.1515 19.7755 26.148 19.7717 26.1454C19.7679 26.1429 19.7685 26.1427 19.7729 26.1471L21.1871 24.7329C20.8108 24.3566 20.3289 24.16 19.8 24.16V26.16ZM19.8215 26.1926C19.8258 26.1963 19.8243 26.1957 19.82 26.19C19.8156 26.1841 19.8105 26.1759 19.8062 26.1661C19.8019 26.1565 19.8 26.1491 19.7994 26.1461C19.7989 26.1434 19.8 26.1474 19.8 26.16H21.8C21.8 25.5898 21.5773 25.0714 21.1385 24.6874L19.8215 26.1926ZM19.8 26.16V28.64H21.8V26.16H19.8ZM19.8 28.64C19.8 31.1638 19.4654 33.5767 18.7993 35.8825L20.7207 36.4375C21.4413 33.9432 21.8 31.3429 21.8 28.64H19.8ZM18.8001 35.8796C18.1332 38.1625 17.1878 40.2155 15.968 42.0453L17.6321 43.1547C18.9722 41.1445 20.0001 38.9042 20.7199 36.4404L18.8001 35.8796ZM15.9626 42.0534C14.7746 43.8734 13.3559 45.3512 11.7082 46.4996L12.8518 48.1404C14.7241 46.8354 16.3188 45.1666 17.6374 43.1466L15.9626 42.0534ZM71.32 46.96L70.5674 47.6185L70.6113 47.6687L70.6615 47.7126L71.32 46.96ZM71.04 27.76H72.04V25.4257L70.3501 27.0361L71.04 27.76ZM63.84 33.68L64.4146 34.4984L64.4163 34.4972L63.84 33.68ZM56.64 38.12L57.0461 39.0338L57.0753 39.0208L57.1036 39.006L56.64 38.12ZM55.88 38.2L55.5927 39.1578L55.6377 39.1713L55.6839 39.1806L55.88 38.2ZM55.28 37.68L54.3662 38.0861L54.3754 38.1069L54.3856 38.1272L55.28 37.68ZM55.24 36.92L56.1978 37.2073L56.1978 37.2073L55.24 36.92ZM55.72 36.32L55.2579 35.4332L55.246 35.4394L55.2344 35.4458L55.72 36.32ZM61.6 32.76L61.0403 31.9313L61.0353 31.9347L61.6 32.76ZM67.64 28.12L66.9909 27.3593L66.9858 27.3636L67.64 28.12ZM73.12 22.72L72.372 22.0563L72.3668 22.0622L73.12 22.72ZM77.32 16.92L78.1897 17.4136L78.2027 17.3907L78.2144 17.3672L77.32 16.92ZM77.92 16.44L78.1161 17.4206L78.1623 17.4113L78.2073 17.3978L77.92 16.44ZM79.08 17.88L79.9493 18.3743L79.9542 18.3656L79.08 17.88ZM76.36 21.92L75.5715 21.305L75.5698 21.3072L76.36 21.92ZM73.04 25.76L72.3177 25.0684L72.04 25.3585V25.76H73.04ZM72.76 46.96L73.4671 47.6671L73.4907 47.6436L73.5126 47.6185L72.76 46.96ZM72.04 46.24C72.032 46.24 72.0277 46.2393 72.0262 46.239C72.0247 46.2388 72.0238 46.2385 72.0224 46.238C72.0212 46.2375 72.0065 46.2319 71.9785 46.2074L70.6615 47.7126C71.0446 48.0478 71.515 48.24 72.04 48.24V46.24ZM72.0726 46.3015C72.0481 46.2735 72.0425 46.2588 72.042 46.2576C72.0415 46.2562 72.0412 46.2553 72.041 46.2538C72.0407 46.2523 72.04 46.248 72.04 46.24H70.04C70.04 46.765 70.2322 47.2354 70.5674 47.6185L72.0726 46.3015ZM72.04 46.24V27.76H70.04V46.24H72.04ZM70.3501 27.0361C68.1186 29.1626 65.7565 31.1047 63.2637 32.8628L64.4163 34.4972C66.9902 32.682 69.4281 30.6774 71.7299 28.4839L70.3501 27.0361ZM63.2654 32.8616C60.788 34.601 58.4251 36.0573 56.1764 37.234L57.1036 39.006C59.4416 37.7827 61.8787 36.279 64.4146 34.4984L63.2654 32.8616ZM56.2339 37.2062C56.1899 37.2257 56.1476 37.2337 56.0761 37.2194L55.6839 39.1806C56.1457 39.2729 56.6101 39.2276 57.0461 39.0338L56.2339 37.2062ZM56.1673 37.2422C56.1633 37.241 56.1647 37.241 56.1696 37.2436C56.1746 37.2464 56.1801 37.2501 56.1849 37.2543C56.1897 37.2584 56.1911 37.2606 56.1896 37.2586C56.188 37.2565 56.1824 37.2487 56.1744 37.2328L54.3856 38.1272C54.6324 38.621 55.0417 38.9925 55.5927 39.1578L56.1673 37.2422ZM56.1938 37.2739C56.1906 37.2667 56.1895 37.2626 56.1892 37.2611C56.1888 37.2597 56.1887 37.2588 56.1886 37.2574C56.1886 37.2562 56.1876 37.2413 56.1978 37.2073L54.2822 36.6327C54.138 37.1134 54.1563 37.6138 54.3662 38.0861L56.1938 37.2739ZM56.1978 37.2073C56.2013 37.1958 56.2039 37.1905 56.2043 37.1898C56.2046 37.1893 56.2035 37.1914 56.2009 37.1947C56.1982 37.198 56.1959 37.2001 56.1952 37.2007C56.1946 37.2012 56.1974 37.1987 56.2056 37.1942L55.2344 35.4458C54.7629 35.7077 54.4359 36.1202 54.2822 36.6327L56.1978 37.2073ZM56.1821 37.2068C58.1156 36.1992 60.1099 34.9912 62.1647 33.5853L61.0353 31.9347C59.0368 33.3021 57.111 34.4675 55.2579 35.4332L56.1821 37.2068ZM62.1597 33.5887C64.2476 32.1787 66.2924 30.6076 68.2942 28.8764L66.9858 27.3636C65.041 29.0457 63.0591 30.568 61.0403 31.9313L62.1597 33.5887ZM68.2891 28.8807C70.3246 27.1437 72.1863 25.3095 73.8732 23.3778L72.3668 22.0622C70.747 23.9171 68.9554 25.6829 66.9909 27.3593L68.2891 28.8807ZM73.868 23.3837C75.5891 21.444 77.0315 19.4543 78.1897 17.4136L76.4503 16.4264C75.3685 18.3324 74.0109 20.2093 72.372 22.0563L73.868 23.3837ZM78.2144 17.3672C78.2269 17.3422 78.2248 17.3568 78.1947 17.3809C78.1805 17.3922 78.1645 17.4021 78.1483 17.4095C78.1323 17.4168 78.1206 17.4197 78.1161 17.4206L77.7239 15.4594C77.1227 15.5797 76.6817 15.9606 76.4256 16.4728L78.2144 17.3672ZM78.2073 17.3978C78.2174 17.3948 78.2213 17.3946 78.2195 17.3948C78.2176 17.395 78.2125 17.3953 78.2053 17.3945C78.1981 17.3937 78.1924 17.3923 78.189 17.3912C78.1858 17.3902 78.1875 17.3903 78.1944 17.3942L79.1656 15.6458C78.6861 15.3794 78.1536 15.3259 77.6327 15.4822L78.2073 17.3978ZM78.1944 17.3942C78.2026 17.3987 78.2054 17.4012 78.2048 17.4007C78.2041 17.4001 78.2018 17.398 78.1991 17.3947C78.1965 17.3914 78.1954 17.3893 78.1957 17.3898C78.1961 17.3905 78.1987 17.3958 78.2022 17.4073L80.1178 16.8326C79.9641 16.3202 79.6371 15.9077 79.1656 15.6458L78.1944 17.3942ZM78.2022 17.4073C78.2052 17.4175 78.2054 17.4213 78.2052 17.4195C78.205 17.4176 78.2047 17.4125 78.2055 17.4053C78.2063 17.3981 78.2077 17.3924 78.2088 17.389C78.2098 17.3858 78.2097 17.3875 78.2058 17.3944L79.9542 18.3656C80.2206 17.8861 80.2741 17.3536 80.1178 16.8326L78.2022 17.4073ZM78.2107 17.3857C77.4632 18.7003 76.584 20.0068 75.5715 21.305L77.1485 22.535C78.216 21.1665 79.1502 19.7797 79.9493 18.3743L78.2107 17.3857ZM75.5698 21.3072C74.5787 22.5851 73.4949 23.8389 72.3177 25.0684L73.7623 26.4516C74.9851 25.1744 76.1146 23.8682 77.1502 22.5328L75.5698 21.3072ZM72.04 25.76V46.24H74.04V25.76H72.04ZM72.04 46.24C72.04 46.248 72.0393 46.2523 72.039 46.2538C72.0388 46.2553 72.0385 46.2562 72.038 46.2576C72.0375 46.2588 72.0319 46.2735 72.0074 46.3015L73.5126 47.6185C73.8478 47.2354 74.04 46.765 74.04 46.24H72.04ZM72.0529 46.2529C72.0528 46.253 72.0557 46.2502 72.0613 46.2465C72.0671 46.2427 72.0729 46.2398 72.0776 46.238C72.0821 46.2362 72.0827 46.2366 72.0776 46.2375C72.0724 46.2384 72.0603 46.24 72.04 46.24V48.24C72.5663 48.24 73.0712 48.063 73.4671 47.6671L72.0529 46.2529ZM112.2 48.2L111.743 47.3104L111.729 47.3179L111.714 47.3258L112.2 48.2ZM111.44 48.28L111.153 49.2378L111.153 49.2378L111.44 48.28ZM110.84 47.8L109.912 48.1714L109.935 48.2302L109.966 48.2856L110.84 47.8ZM111.28 46.44L111.686 47.3538L111.71 47.3433L111.733 47.3317L111.28 46.44ZM116.44 43.04L115.815 42.2591L115.809 42.2639L116.44 43.04ZM121.4 38.4L120.665 37.7217L120.665 37.7222L121.4 38.4ZM125.72 33L124.897 32.432L124.895 32.4345L125.72 33ZM129 27.32L129.907 27.7415L130.663 26.1147L128.882 26.327L129 27.32ZM109.2 29.68L109.3 30.675L109.309 30.6741L109.318 30.673L109.2 29.68ZM108.44 29.44L107.781 30.1926L107.803 30.2116L107.826 30.2294L108.44 29.44ZM108.08 28.76L109.075 28.6605L109.075 28.6605L108.08 28.76ZM108.28 28.04L107.491 27.4261L107.485 27.433L107.48 27.44L108.28 28.04ZM108.96 27.64L109.06 28.635L109.068 28.6342L109.076 28.6332L108.96 27.64ZM130.52 25.12L130.443 24.1229L130.424 24.1245L130.404 24.1268L130.52 25.12ZM131.44 25.52L132.249 24.9318L132.217 24.8877L132.18 24.8473L131.44 25.52ZM131.56 26.48L132.492 26.8413L132.493 26.839L131.56 26.48ZM128.24 32.92L129.078 33.465L129.082 33.4602L128.24 32.92ZM123.56 39.04L122.813 38.375L122.813 38.375L123.56 39.04ZM118.04 44.32L117.411 43.5422L117.406 43.5465L118.04 44.32ZM113.36 20.8L113.46 21.7951L113.467 21.7942L113.36 20.8ZM112.64 20.6L111.981 21.3526L112.01 21.3774L112.04 21.4L112.64 20.6ZM112.24 19.92L111.244 20.0105L111.249 20.0637L111.259 20.1161L112.24 19.92ZM113.16 18.8L113.26 19.7951L113.27 19.7939L113.16 18.8ZM125.76 17.4L125.669 16.4041L125.66 16.405L125.65 16.4061L125.76 17.4ZM126.52 17.64L125.861 18.3926L125.89 18.4174L125.92 18.44L126.52 17.64ZM126.88 18.32L125.884 18.4105L125.885 18.4195L126.88 18.32ZM126.64 19.04L125.887 18.3815L125.863 18.4099L125.84 18.44L126.64 19.04ZM125.96 19.44L126.067 20.4342L126.103 20.4303L126.139 20.4239L125.96 19.44ZM111.714 47.3258C111.707 47.3297 111.706 47.3298 111.709 47.3288C111.712 47.3277 111.718 47.3262 111.725 47.3255C111.732 47.3247 111.738 47.325 111.74 47.3252C111.741 47.3254 111.737 47.3252 111.727 47.3222L111.153 49.2378C111.674 49.3941 112.206 49.3406 112.686 49.0742L111.714 47.3258ZM111.727 47.3222C111.716 47.3187 111.711 47.3161 111.71 47.3157C111.709 47.3154 111.711 47.3165 111.715 47.3191C111.718 47.3218 111.72 47.3241 111.721 47.3248C111.721 47.3254 111.719 47.3226 111.714 47.3144L109.966 48.2856C110.228 48.7571 110.64 49.0841 111.153 49.2378L111.727 47.3222ZM111.768 47.4286C111.743 47.3647 111.745 47.3301 111.758 47.2873L109.842 46.7127C109.695 47.2032 109.724 47.702 109.912 48.1714L111.768 47.4286ZM111.758 47.2873C111.763 47.27 111.761 47.285 111.739 47.3108C111.729 47.3228 111.718 47.3332 111.706 47.3414C111.695 47.3495 111.688 47.3531 111.686 47.3538L110.874 45.5262C110.35 45.7591 110 46.1858 109.842 46.7127L111.758 47.2873ZM111.733 47.3317C113.537 46.4157 115.316 45.2418 117.071 43.8161L115.809 42.2639C114.151 43.6116 112.49 44.7043 110.827 45.5483L111.733 47.3317ZM117.065 43.8209C118.839 42.4013 120.529 40.8199 122.135 39.0778L120.665 37.7222C119.124 39.3935 117.507 40.9054 115.815 42.2591L117.065 43.8209ZM122.135 39.0783C123.766 37.3111 125.236 35.4735 126.545 33.5655L124.895 32.4345C123.644 34.2598 122.234 36.0223 120.665 37.7217L122.135 39.0783ZM126.543 33.568C127.879 31.6329 129.001 29.6908 129.907 27.7415L128.093 26.8985C127.239 28.7359 126.175 30.5804 124.897 32.432L126.543 33.568ZM128.882 26.327L109.082 28.687L109.318 30.673L129.118 28.313L128.882 26.327ZM109.1 28.685C109.099 28.6851 109.101 28.6848 109.105 28.6852C109.106 28.6854 109.108 28.6856 109.109 28.6859C109.11 28.686 109.11 28.6862 109.111 28.6863C109.111 28.6864 109.111 28.6864 109.111 28.6864C109.111 28.6864 109.111 28.6863 109.11 28.6862C109.11 28.686 109.109 28.6857 109.108 28.6852C109.106 28.6843 109.103 28.6828 109.098 28.6803C109.089 28.6753 109.074 28.6662 109.054 28.6506L107.826 30.2294C108.239 30.5507 108.743 30.7307 109.3 30.675L109.1 28.685ZM109.099 28.6874C109.086 28.6763 109.079 28.6685 109.076 28.6647C109.073 28.6611 109.073 28.6603 109.074 28.6621C109.075 28.664 109.076 28.6661 109.076 28.6675C109.076 28.6688 109.076 28.6669 109.075 28.6605L107.085 28.8595C107.138 29.3943 107.389 29.8494 107.781 30.1926L109.099 28.6874ZM109.075 28.6605C109.074 28.6498 109.074 28.6446 109.074 28.6437C109.074 28.643 109.074 28.6446 109.074 28.6476C109.073 28.6507 109.072 28.6524 109.072 28.6522C109.072 28.6519 109.074 28.6478 109.08 28.64L107.48 27.44C107.169 27.8549 107.033 28.3448 107.085 28.8595L109.075 28.6605ZM109.069 28.6539C109.083 28.6359 109.093 28.6262 109.098 28.6221C109.102 28.6181 109.102 28.619 109.097 28.6219C109.092 28.625 109.085 28.6285 109.076 28.6312C109.068 28.634 109.061 28.6348 109.06 28.635L108.86 26.645C108.284 26.7026 107.821 27.0019 107.491 27.4261L109.069 28.6539ZM109.076 28.6332L130.636 26.1132L130.404 24.1268L108.844 26.6468L109.076 28.6332ZM130.597 26.1171C130.608 26.1162 130.612 26.1171 130.611 26.1169C130.61 26.1168 130.61 26.1164 130.611 26.1171C130.613 26.1178 130.644 26.1315 130.7 26.1927L132.18 24.8473C131.739 24.362 131.143 24.0691 130.443 24.1229L130.597 26.1171ZM130.631 26.1082C130.642 26.1234 130.644 26.1297 130.643 26.1268C130.643 26.1254 130.642 26.1225 130.64 26.1183C130.639 26.114 130.638 26.1091 130.638 26.104C130.637 26.0989 130.637 26.0945 130.637 26.091C130.637 26.0876 130.637 26.086 130.637 26.0864C130.637 26.087 130.635 26.0982 130.627 26.121L132.493 26.839C132.745 26.1851 132.667 25.5072 132.249 24.9318L130.631 26.1082ZM130.628 26.1187C129.828 28.1824 128.753 30.2695 127.398 32.3798L129.082 33.4602C130.5 31.2505 131.639 29.0442 132.492 26.8413L130.628 26.1187ZM127.402 32.375C126.043 34.4651 124.514 36.4651 122.813 38.375L124.307 39.705C126.073 37.7216 127.664 35.6416 129.078 33.465L127.402 32.375ZM122.813 38.375C121.115 40.2826 119.314 42.0046 117.411 43.5423L118.669 45.0977C120.659 43.4887 122.539 41.6907 124.307 39.705L122.813 38.375ZM117.406 43.5465C115.535 45.0802 113.647 46.333 111.743 47.3104L112.657 49.0896C114.7 48.0404 116.705 46.7064 118.674 45.0935L117.406 43.5465ZM113.26 19.805C113.25 19.806 113.245 19.8057 113.244 19.8056C113.243 19.8055 113.245 19.8056 113.248 19.8065C113.251 19.8073 113.252 19.8082 113.252 19.8081C113.252 19.8079 113.248 19.8059 113.24 19.8L112.04 21.4C112.455 21.7112 112.945 21.8465 113.46 21.795L113.26 19.805ZM113.299 19.8474C113.243 19.7991 113.229 19.765 113.221 19.7239L111.259 20.1161C111.358 20.6083 111.61 21.0275 111.981 21.3526L113.299 19.8474ZM113.236 19.8295C113.234 19.8141 113.235 19.8062 113.235 19.8046C113.235 19.8032 113.235 19.8059 113.234 19.8111C113.232 19.8164 113.23 19.8209 113.228 19.8236C113.227 19.8262 113.227 19.8244 113.233 19.8185L111.727 18.5015C111.353 18.9296 111.194 19.4567 111.244 20.0105L113.236 19.8295ZM113.233 19.8185C113.244 19.8058 113.251 19.7989 113.255 19.7959C113.259 19.793 113.26 19.7928 113.258 19.7938C113.256 19.7948 113.254 19.7956 113.252 19.796C113.251 19.7964 113.253 19.7957 113.26 19.795L113.06 17.805C112.526 17.8584 112.071 18.1093 111.727 18.5015L113.233 19.8185ZM113.27 19.7939L125.87 18.3939L125.65 16.4061L113.05 17.8061L113.27 19.7939ZM125.851 18.3959C125.866 18.3945 125.874 18.3951 125.875 18.3953C125.877 18.3954 125.874 18.3952 125.869 18.3936C125.864 18.3919 125.859 18.3898 125.856 18.3882C125.854 18.3868 125.856 18.3874 125.861 18.3926L127.179 16.8874C126.75 16.5128 126.223 16.3538 125.669 16.4041L125.851 18.3959ZM125.92 18.44C125.918 18.4387 125.912 18.434 125.905 18.4254C125.898 18.4167 125.891 18.4071 125.886 18.3979C125.881 18.3888 125.88 18.3834 125.88 18.384C125.88 18.3848 125.883 18.393 125.884 18.4105L127.876 18.2295C127.827 17.6872 127.585 17.1887 127.12 16.84L125.92 18.44ZM125.885 18.4195C125.885 18.4218 125.885 18.4183 125.885 18.4103C125.886 18.4022 125.888 18.3929 125.891 18.3838C125.894 18.3747 125.897 18.3693 125.898 18.368C125.899 18.3669 125.896 18.3715 125.887 18.3815L127.393 19.6985C127.75 19.2904 127.931 18.7798 127.875 18.2205L125.885 18.4195ZM125.84 18.44C125.838 18.4423 125.838 18.442 125.84 18.4404C125.842 18.4388 125.843 18.438 125.843 18.4381C125.843 18.4382 125.839 18.4405 125.83 18.4438C125.82 18.4472 125.805 18.4519 125.781 18.4561L126.139 20.4239C126.649 20.3312 127.11 20.0793 127.44 19.64L125.84 18.44ZM125.853 18.4458L113.253 19.8058L113.467 21.7942L126.067 20.4342L125.853 18.4458ZM163.4 47.08L163.014 46.1577L163.004 46.1618L162.994 46.1662L163.4 47.08ZM162.68 47.08L163.086 46.1662L163.059 46.1541L163.031 46.1437L162.68 47.08ZM162.2 46.6L163.114 46.1939L163.105 46.1731L163.094 46.1528L162.2 46.6ZM162.2 45.96L163.094 46.4072L163.105 46.3869L163.114 46.3661L162.2 45.96ZM162.68 45.44L162.289 44.5194L162.261 44.5316L162.233 44.5456L162.68 45.44ZM169.8 41L170.458 41.7532L170.459 41.7526L169.8 41ZM175.12 34.6L174.262 34.0855L174.258 34.0926L175.12 34.6ZM178.08 26.96L177.104 26.7431L177.101 26.7544L177.099 26.7658L178.08 26.96ZM178.48 26.4L179.01 27.248L179.046 27.2255L179.08 27.2L178.48 26.4ZM179.16 26.24L179.377 25.2638L179.377 25.2638L179.16 26.24ZM179.72 26.64L178.872 27.17L178.895 27.206L178.92 27.24L179.72 26.64ZM179.88 27.32L178.904 27.1031L178.902 27.1117L178.9 27.1204L179.88 27.32ZM176.68 35.48L175.824 34.9629L175.82 34.9695L176.68 35.48ZM171 42.32L171.662 43.0698L171.662 43.0698L171 42.32ZM170.24 33.6L170.023 32.6238L169.973 32.635L169.924 32.6513L170.24 33.6ZM169.56 33.56L169.03 34.408L169.07 34.4332L169.113 34.4544L169.56 33.56ZM169.12 33L168.159 33.2755L168.165 33.296L168.171 33.3162L169.12 33ZM167.24 26.44L166.259 26.6361L166.267 26.6762L166.279 26.7155L167.24 26.44ZM167.32 25.72L166.472 25.19L166.447 25.2303L166.426 25.2728L167.32 25.72ZM167.88 25.32L168.097 26.2962L168.147 26.285L168.196 26.2687L167.88 25.32ZM168.56 25.4L168.03 26.248L168.09 26.2853L168.154 26.3138L168.56 25.4ZM169 25.92L168.024 26.1369L168.03 26.1664L168.039 26.1955L169 25.92ZM170.88 32.48L171.856 32.2631L171.85 32.2336L171.841 32.2045L170.88 32.48ZM170.76 33.2L169.886 32.7144L169.875 32.7333L169.866 32.7528L170.76 33.2ZM165 35.36L165.53 36.208L165.53 36.208L165 35.36ZM164.32 35.48L164.004 36.4287L164.053 36.445L164.103 36.4562L164.32 35.48ZM163.76 35.04L162.889 35.5317L162.9 35.5511L162.912 35.57L163.76 35.04ZM160.44 29.16L159.546 29.6072L159.557 29.6297L159.569 29.6517L160.44 29.16ZM160.36 28.48L159.411 28.1638L159.395 28.2127L159.384 28.2631L160.36 28.48ZM160.76 27.92L160.23 27.072L160.204 27.0883L160.179 27.1063L160.76 27.92ZM161.44 27.84L161.124 28.7887L161.138 28.7935L161.153 28.7978L161.44 27.84ZM162 28.28L161.106 28.7272L161.119 28.7534L161.133 28.7787L162 28.28ZM165.36 34.12L164.493 34.6187L164.502 34.6345L164.512 34.65L165.36 34.12ZM165.44 34.8L164.491 34.4838L164.491 34.4838L165.44 34.8ZM162.994 46.1662C162.991 46.1676 162.994 46.1659 163.003 46.1638C163.013 46.1617 163.025 46.16 163.04 46.16C163.055 46.16 163.067 46.1617 163.077 46.1638C163.086 46.1659 163.089 46.1676 163.086 46.1662L162.274 47.9938C162.772 48.2154 163.308 48.2154 163.806 47.9938L162.994 46.1662ZM163.031 46.1437C163.042 46.1479 163.056 46.1545 163.071 46.1638C163.085 46.1732 163.098 46.1834 163.107 46.1929C163.127 46.2124 163.125 46.2195 163.114 46.1939L161.286 47.0061C161.484 47.4505 161.826 47.8276 162.329 48.0163L163.031 46.1437ZM163.094 46.1528C163.102 46.1684 163.12 46.2139 163.12 46.28C163.12 46.3461 163.102 46.3916 163.094 46.4072L161.306 45.5128C161.058 46.0076 161.058 46.5524 161.306 47.0472L163.094 46.1528ZM163.114 46.3661C163.128 46.3348 163.137 46.3261 163.135 46.3283C163.134 46.329 163.132 46.3307 163.13 46.3325C163.128 46.3343 163.126 46.3349 163.127 46.3344L162.233 44.5456C161.791 44.7666 161.477 45.1248 161.286 45.5539L163.114 46.3661ZM163.071 46.3606C165.805 45.2003 168.269 43.6645 170.458 41.7532L169.142 40.2468C167.117 42.0155 164.835 43.4397 162.289 44.5194L163.071 46.3606ZM170.459 41.7526C172.671 39.8168 174.513 37.6011 175.982 35.1074L174.258 34.0926C172.9 36.3989 171.196 38.4498 169.141 40.2474L170.459 41.7526ZM175.977 35.1145C177.476 32.6176 178.505 29.9629 179.061 27.1542L177.099 26.7658C176.589 29.3438 175.644 31.7824 174.263 34.0855L175.977 35.1145ZM179.056 27.1769C179.056 27.1765 179.055 27.1817 179.051 27.1908C179.047 27.2 179.041 27.2106 179.034 27.2212C179.017 27.2444 179.004 27.2519 179.01 27.248L177.95 25.552C177.515 25.8237 177.217 26.2347 177.104 26.7431L179.056 27.1769ZM179.08 27.2C179.092 27.1908 179.078 27.2042 179.039 27.2134C178.998 27.2232 178.962 27.2203 178.943 27.2162L179.377 25.2638C178.826 25.1413 178.305 25.2816 177.88 25.6L179.08 27.2ZM178.943 27.2162C178.943 27.2163 178.938 27.2151 178.929 27.2112C178.92 27.2071 178.909 27.2013 178.899 27.1937C178.876 27.1772 178.868 27.1637 178.872 27.17L180.568 26.11C180.296 25.6753 179.885 25.3768 179.377 25.2638L178.943 27.2162ZM178.92 27.24C178.929 27.2522 178.916 27.2381 178.907 27.199C178.897 27.1577 178.9 27.1216 178.904 27.1031L180.856 27.5369C180.979 26.9857 180.838 26.4645 180.52 26.04L178.92 27.24ZM178.9 27.1204C178.337 29.8862 177.313 32.4991 175.824 34.9629L177.536 35.9971C179.141 33.3409 180.25 30.5137 180.86 27.5196L178.9 27.1204ZM175.82 34.9695C174.354 37.4385 172.528 39.638 170.338 41.5702L171.662 43.0698C174.005 41.002 175.966 38.6415 177.54 35.9905L175.82 34.9695ZM170.338 41.5702C168.154 43.4978 165.713 45.0263 163.014 46.1577L163.786 48.0023C166.687 46.787 169.313 45.1422 171.662 43.0698L170.338 41.5702ZM169.924 32.6513C169.911 32.6557 169.921 32.6501 169.949 32.6517C169.961 32.6525 169.974 32.6546 169.986 32.6577C169.997 32.6608 170.004 32.6641 170.007 32.6656L169.113 34.4544C169.579 34.6875 170.082 34.7069 170.556 34.5487L169.924 32.6513ZM170.09 32.712C170.082 32.7071 170.078 32.7037 170.077 32.7026C170.076 32.7015 170.076 32.7014 170.076 32.7022C170.077 32.7029 170.077 32.7028 170.076 32.7008C170.075 32.6988 170.072 32.6935 170.069 32.6838L168.171 33.3162C168.324 33.7754 168.618 34.1507 169.03 34.408L170.09 32.712ZM170.081 32.7245L168.201 26.1645L166.279 26.7155L168.159 33.2755L170.081 32.7245ZM168.221 26.2439C168.212 26.1989 168.213 26.1762 168.214 26.1704C168.214 26.1673 168.215 26.1665 168.214 26.1672C168.214 26.1679 168.214 26.1681 168.214 26.1672L166.426 25.2728C166.206 25.7124 166.169 26.1835 166.259 26.6361L168.221 26.2439ZM168.168 26.25C168.172 26.2437 168.164 26.2572 168.141 26.2737C168.131 26.2813 168.12 26.2871 168.111 26.2912C168.102 26.2951 168.097 26.2963 168.097 26.2962L167.663 24.3438C167.155 24.4568 166.744 24.7553 166.472 25.19L168.168 26.25ZM168.196 26.2687C168.192 26.27 168.161 26.2788 168.113 26.2731C168.065 26.2675 168.036 26.2515 168.03 26.248L169.09 24.552C168.622 24.2596 168.085 24.1976 167.564 24.3713L168.196 26.2687ZM168.154 26.3138C168.158 26.3155 168.125 26.3011 168.087 26.2559C168.047 26.2089 168.029 26.1617 168.024 26.1369L169.976 25.7031C169.849 25.1297 169.473 24.7114 168.966 24.4862L168.154 26.3138ZM168.039 26.1955L169.919 32.7555L171.841 32.2045L169.961 25.6445L168.039 26.1955ZM169.904 32.6969C169.904 32.6963 169.903 32.6929 169.903 32.6878C169.903 32.6826 169.903 32.6782 169.904 32.6756C169.904 32.6731 169.904 32.6745 169.902 32.6804C169.9 32.6864 169.895 32.6977 169.886 32.7144L171.634 33.6856C171.871 33.2586 171.969 32.7702 171.856 32.2631L169.904 32.6969ZM169.866 32.7528C169.874 32.7367 169.897 32.701 169.94 32.6674C169.983 32.6344 170.018 32.6249 170.023 32.6238L170.457 34.5762C170.98 34.4599 171.408 34.1393 171.654 33.6472L169.866 32.7528ZM164.47 34.512C164.465 34.515 164.466 34.5142 164.471 34.5121C164.477 34.5099 164.485 34.5072 164.496 34.5052C164.507 34.5033 164.518 34.5027 164.526 34.5029C164.534 34.5031 164.538 34.5041 164.537 34.5038L164.103 36.4562C164.606 36.5679 165.1 36.4768 165.53 36.208L164.47 34.512ZM164.636 34.5313C164.626 34.5281 164.621 34.5255 164.619 34.5244C164.617 34.5234 164.617 34.5231 164.618 34.5237C164.619 34.5243 164.618 34.5244 164.617 34.5231C164.616 34.5218 164.613 34.5179 164.608 34.51L162.912 35.57C163.169 35.9817 163.545 36.2756 164.004 36.4287L164.636 34.5313ZM164.631 34.5483L161.311 28.6683L159.569 29.6517L162.889 35.5317L164.631 34.5483ZM161.334 28.7128C161.332 28.7081 161.332 28.7064 161.332 28.7075C161.332 28.7086 161.333 28.7107 161.333 28.7132C161.333 28.7156 161.333 28.7163 161.333 28.7145C161.333 28.7127 161.334 28.707 161.336 28.6969L159.384 28.2631C159.282 28.7198 159.333 29.1817 159.546 29.6072L161.334 28.7128ZM161.309 28.7962C161.32 28.7612 161.331 28.7456 161.334 28.7412C161.336 28.7377 161.338 28.7363 161.341 28.7337L160.179 27.1063C159.802 27.3751 159.551 27.7449 159.411 28.1638L161.309 28.7962ZM161.29 28.768C161.284 28.7715 161.255 28.7875 161.207 28.7931C161.159 28.7988 161.128 28.79 161.124 28.7887L161.756 26.8913C161.235 26.7176 160.698 26.7796 160.23 27.072L161.29 28.768ZM161.153 28.7978C161.186 28.808 161.183 28.8125 161.162 28.7963C161.152 28.7884 161.141 28.7776 161.13 28.7642C161.119 28.7507 161.111 28.7378 161.106 28.7272L162.894 27.8328C162.644 27.3312 162.21 27.027 161.727 26.8822L161.153 28.7978ZM161.133 28.7787L164.493 34.6187L166.227 33.6213L162.867 27.7813L161.133 28.7787ZM164.512 34.65C164.508 34.6443 164.492 34.6147 164.487 34.5668C164.481 34.5191 164.49 34.4879 164.491 34.4838L166.389 35.1162C166.562 34.5951 166.5 34.0579 166.208 33.59L164.512 34.65ZM164.491 34.4838C164.488 34.4935 164.485 34.4988 164.484 34.5008C164.483 34.5028 164.483 34.5029 164.484 34.5022C164.484 34.5014 164.484 34.5015 164.483 34.5026C164.482 34.5037 164.478 34.5071 164.47 34.512L165.53 36.208C165.942 35.9507 166.236 35.5754 166.389 35.1162L164.491 34.4838ZM217.36 47.68L216.653 48.3871L216.653 48.3871L217.36 47.68ZM217.36 15.84L216.701 15.0874L216.701 15.0874L217.36 15.84ZM218.76 15.84L218.053 16.5471L218.076 16.5706L218.101 16.5926L218.76 15.84ZM219.08 26.68H218.08V27.3356L218.681 27.5971L219.08 26.68ZM223.08 28.76L222.57 29.6204L222.582 29.6273L223.08 28.76ZM227.28 31.36L226.725 32.1921L226.737 32.1996L227.28 31.36ZM230.72 33.8L231.379 33.0474L231.362 33.0329L231.345 33.0191L230.72 33.8ZM231.08 34.48L230.085 34.5795L230.09 34.6282L230.099 34.6761L231.08 34.48ZM230.88 35.2L230.127 34.5415L230.103 34.5699L230.08 34.6L230.88 35.2ZM230.2 35.6L230.3 36.595L230.339 36.591L230.379 36.5839L230.2 35.6ZM229.48 35.4L228.852 36.1784L228.866 36.1894L228.88 36.2L229.48 35.4ZM226.44 33.24L225.885 34.072L225.892 34.0764L225.898 34.0806L226.44 33.24ZM222.72 30.88L222.203 31.7359L222.203 31.7359L222.72 30.88ZM219.08 28.88L219.519 27.9814L218.08 27.2787V28.88H219.08ZM218.76 47.68L218.053 46.9729L218.029 46.9964L218.007 47.0215L218.76 47.68ZM236.28 21.56L235.575 22.2695L235.771 22.4634L236.037 22.5301L236.28 21.56ZM230.4 15.72L229.693 16.4271L229.695 16.4295L230.4 15.72ZM230.4 14.52L229.741 13.7674L229.716 13.7893L229.693 13.8129L230.4 14.52ZM231.64 14.52L232.345 13.8105L232.334 13.7995L232.322 13.7889L231.64 14.52ZM237.48 20.32L238.211 19.6377L238.198 19.6238L238.185 19.6105L237.48 20.32ZM237.48 21.56L238.187 22.2671L238.211 22.2436L238.233 22.2185L237.48 21.56ZM236.76 21.68L236.517 22.6501L236.517 22.6501L236.76 21.68ZM233 24.68L232.293 25.3871L232.316 25.4106L232.341 25.4326L233 24.68ZM227.16 17.64L226.453 16.9329L226.426 16.96L226.401 16.9892L227.16 17.64ZM228.36 17.64L227.653 18.3471L227.655 18.3495L228.36 17.64ZM234.24 23.48L234.947 22.7729L234.945 22.7705L234.24 23.48ZM234.24 24.68L234.922 25.4111L234.963 25.3731L234.999 25.3308L234.24 24.68ZM218.08 47C218.08 47 218.085 47.0001 218.091 47.0015C218.097 47.0028 218.103 47.0047 218.106 47.0062C218.109 47.0076 218.108 47.0074 218.102 47.003C218.095 46.9986 218.084 46.9894 218.067 46.9729L216.653 48.3871C217.027 48.7611 217.512 49 218.08 49V47ZM218.067 46.9729C218.051 46.9564 218.041 46.9446 218.037 46.9383C218.033 46.9322 218.032 46.9307 218.034 46.9339C218.035 46.9372 218.037 46.9425 218.039 46.949C218.039 46.952 218.04 46.9546 218.04 46.9567C218.04 46.9577 218.04 46.9585 218.04 46.9591C218.04 46.9594 218.04 46.9596 218.04 46.9598C218.04 46.9598 218.04 46.9599 218.04 46.9599C218.04 46.96 218.04 46.96 218.04 46.96C218.04 46.96 218.04 46.96 218.04 46.96C218.04 46.96 218.04 46.96 218.04 46.96H216.04C216.04 47.5276 216.279 48.0131 216.653 48.3871L218.067 46.9729ZM218.04 46.96V16.56H216.04V46.96H218.04ZM218.04 16.56C218.04 16.5474 218.041 16.5434 218.041 16.5461C218.04 16.5491 218.038 16.5565 218.034 16.5661C218.029 16.5759 218.024 16.5841 218.02 16.59C218.016 16.5957 218.014 16.5963 218.019 16.5926L216.701 15.0874C216.263 15.4714 216.04 15.9898 216.04 16.56H218.04ZM218.019 16.5926C218.046 16.5681 218.061 16.5625 218.062 16.562C218.064 16.5615 218.065 16.5612 218.066 16.561C218.068 16.5607 218.072 16.56 218.08 16.56V14.56C217.555 14.56 217.085 14.7522 216.701 15.0874L218.019 16.5926ZM218.08 16.56C218.088 16.56 218.09 16.5607 218.087 16.5601C218.083 16.5594 218.077 16.5578 218.069 16.5547C218.062 16.5515 218.056 16.548 218.052 16.5454C218.048 16.5429 218.048 16.5427 218.053 16.5471L219.467 15.1329C219.091 14.7566 218.609 14.56 218.08 14.56V16.56ZM218.101 16.5926C218.106 16.5963 218.104 16.5957 218.1 16.59C218.096 16.5841 218.091 16.5759 218.086 16.5661C218.082 16.5565 218.08 16.5491 218.079 16.5461C218.079 16.5434 218.08 16.5474 218.08 16.56H220.08C220.08 15.9898 219.857 15.4714 219.419 15.0874L218.101 16.5926ZM218.08 16.56V26.68H220.08V16.56H218.08ZM218.681 27.5971C219.862 28.1103 221.158 28.7832 222.57 29.6203L223.59 27.8997C222.122 27.0302 220.752 26.3164 219.479 25.7629L218.681 27.5971ZM222.582 29.6273C224.003 30.443 225.384 31.2979 226.725 32.192L227.835 30.5279C226.456 29.6087 225.037 28.7303 223.578 27.8927L222.582 29.6273ZM226.737 32.1996C228.078 33.0673 229.195 33.861 230.095 34.5809L231.345 33.0191C230.378 32.2457 229.202 31.4127 227.823 30.5204L226.737 32.1996ZM230.061 34.5526C230.074 34.5637 230.081 34.5715 230.084 34.5753C230.087 34.5789 230.087 34.5797 230.086 34.5779C230.085 34.576 230.084 34.5739 230.084 34.5725C230.084 34.5712 230.084 34.5731 230.085 34.5795L232.075 34.3805C232.022 33.8457 231.771 33.3906 231.379 33.0474L230.061 34.5526ZM230.099 34.6761C230.099 34.6749 230.097 34.6652 230.098 34.6487C230.098 34.6318 230.101 34.6124 230.106 34.5924C230.118 34.5492 230.136 34.532 230.127 34.5415L231.633 35.8585C232.014 35.4228 232.178 34.8701 232.061 34.2839L230.099 34.6761ZM230.08 34.6C230.078 34.6023 230.078 34.602 230.08 34.6004C230.082 34.5988 230.083 34.598 230.083 34.5981C230.083 34.5982 230.079 34.6005 230.07 34.6038C230.06 34.6072 230.045 34.6119 230.021 34.6161L230.379 36.5839C230.889 36.4912 231.35 36.2393 231.68 35.8L230.08 34.6ZM230.1 34.605C230.09 34.606 230.085 34.6057 230.084 34.6056C230.083 34.6055 230.085 34.6056 230.088 34.6065C230.091 34.6073 230.092 34.6082 230.092 34.6081C230.092 34.6079 230.088 34.6059 230.08 34.6L228.88 36.2C229.295 36.5112 229.785 36.6465 230.3 36.595L230.1 34.605ZM230.108 34.6216C229.246 33.9266 228.202 33.1859 226.982 32.3994L225.898 34.0806C227.078 34.8408 228.061 35.54 228.852 36.1784L230.108 34.6216ZM226.995 32.4079C225.782 31.5994 224.529 30.8048 223.237 30.0241L222.203 31.7359C223.471 32.5019 224.698 33.2806 225.885 34.072L226.995 32.4079ZM223.237 30.0241C221.936 29.2379 220.696 28.5565 219.519 27.9814L218.641 29.7786C219.757 30.3235 220.944 30.9754 222.203 31.7359L223.237 30.0241ZM218.08 28.88V46.96H220.08V28.88H218.08ZM218.08 46.96C218.08 46.9595 218.08 46.9554 218.081 46.949C218.083 46.9425 218.085 46.9372 218.086 46.9339C218.088 46.9307 218.087 46.9322 218.083 46.9383C218.079 46.9446 218.069 46.9564 218.053 46.9729L219.467 48.3871C219.841 48.0131 220.08 47.5276 220.08 46.96H218.08ZM218.007 47.0215C217.993 47.038 217.997 47.0278 218.024 47.0152C218.037 47.0094 218.049 47.0051 218.061 47.0026C218.073 47.0001 218.08 47 218.08 47V49C218.655 49 219.15 48.7533 219.513 48.3385L218.007 47.0215ZM236.985 20.8505L231.105 15.0105L229.695 16.4295L235.575 22.2695L236.985 20.8505ZM231.107 15.0129C231.118 15.0237 231.136 15.0466 231.148 15.0786C231.161 15.1095 231.16 15.1273 231.16 15.12H229.16C229.16 15.6074 229.333 16.0673 229.693 16.4271L231.107 15.0129ZM231.16 15.12C231.16 15.1127 231.161 15.1305 231.148 15.1614C231.136 15.1934 231.118 15.2163 231.107 15.2271L229.693 13.8129C229.333 14.1727 229.16 14.6326 229.16 15.12H231.16ZM231.059 15.2726C231.107 15.2306 231.129 15.2215 231.124 15.2238C231.115 15.2276 231.082 15.24 231.03 15.24C231.006 15.24 230.983 15.2372 230.962 15.2326C230.942 15.228 230.928 15.2224 230.92 15.2188C230.906 15.2121 230.919 15.2151 230.958 15.2511L232.322 13.7889C231.999 13.4868 231.563 13.24 231.03 13.24C230.504 13.24 230.069 13.4807 229.741 13.7674L231.059 15.2726ZM230.935 15.2295L236.775 21.0295L238.185 19.6105L232.345 13.8105L230.935 15.2295ZM236.749 21.0023C236.785 21.0408 236.788 21.0542 236.781 21.0397C236.778 21.0319 236.772 21.0177 236.767 20.9976C236.763 20.9773 236.76 20.9543 236.76 20.93C236.76 20.8785 236.772 20.8448 236.776 20.8364C236.779 20.8311 236.769 20.8535 236.727 20.9015L238.233 22.2185C238.519 21.8908 238.76 21.4561 238.76 20.93C238.76 20.3969 238.513 19.9614 238.211 19.6377L236.749 21.0023ZM236.773 20.8529C236.808 20.8178 236.85 20.7867 236.898 20.7631C236.944 20.7397 236.986 20.7286 237.016 20.7236C237.07 20.7146 237.074 20.7277 237.003 20.7099L236.517 22.6501C237.008 22.7727 237.676 22.7786 238.187 22.2671L236.773 20.8529ZM237.003 20.7099C236.987 20.7059 236.959 20.699 236.944 20.6953C236.915 20.688 236.918 20.6887 236.89 20.6817C236.834 20.6677 236.844 20.6701 236.793 20.6574C236.748 20.6461 236.75 20.6467 236.71 20.6367C236.708 20.6361 236.703 20.635 236.701 20.6344C236.694 20.6326 236.699 20.6339 236.692 20.6322C236.682 20.6298 236.684 20.6301 236.674 20.6278C236.657 20.6235 236.659 20.6239 236.643 20.6199C236.641 20.6195 236.636 20.6183 236.635 20.618C236.635 20.6179 236.635 20.6179 236.634 20.6178C236.634 20.6177 236.634 20.6176 236.633 20.6176C236.633 20.6174 236.632 20.6172 236.632 20.6171C236.631 20.6169 236.629 20.6165 236.628 20.6162C236.624 20.6153 236.618 20.6137 236.614 20.6128C236.611 20.612 236.611 20.6121 236.608 20.6112C236.608 20.6112 236.602 20.6097 236.602 20.6097C236.599 20.6089 236.593 20.6075 236.59 20.6067C236.569 20.6015 236.569 20.6014 236.553 20.5974C236.551 20.597 236.547 20.5959 236.546 20.5956C236.542 20.5947 236.543 20.5949 236.539 20.5941C236.536 20.5933 236.532 20.5922 236.53 20.5917C236.528 20.5913 236.525 20.5904 236.524 20.5903C236.524 20.5903 236.524 20.5902 236.524 20.5902C236.524 20.5902 236.524 20.5902 236.524 20.5902C236.524 20.5902 236.524 20.5902 236.524 20.5902C236.524 20.5902 236.524 20.5901 236.524 20.5901C236.523 20.5901 236.523 20.59 236.523 20.59C236.523 20.59 236.523 20.5899 236.523 20.5899C236.523 20.5899 236.523 20.5899 236.523 20.5899C236.523 20.5899 236.523 20.5899 236.523 20.5899C236.523 20.5899 236.523 20.5899 236.523 20.5899C236.523 20.5899 236.523 20.5899 236.523 20.5899C236.523 20.5899 236.523 20.5899 236.523 20.5899C236.523 20.5899 236.523 20.5899 236.28 21.56C236.037 22.5301 236.037 22.5301 236.037 22.5301C236.037 22.5301 236.037 22.5301 236.037 22.5301C236.037 22.5301 236.037 22.5301 236.037 22.5301C236.037 22.5301 236.038 22.5302 236.038 22.5302C236.038 22.5302 236.038 22.5302 236.038 22.5302C236.038 22.5302 236.038 22.5302 236.038 22.5302C236.038 22.5302 236.038 22.5302 236.038 22.5302C236.038 22.5302 236.038 22.5302 236.038 22.5302C236.038 22.5302 236.038 22.5302 236.038 22.5302C236.038 22.5302 236.038 22.5302 236.038 22.5302C236.038 22.5302 236.038 22.5302 236.038 22.5302C236.038 22.5302 236.038 22.5302 236.038 22.5302C236.038 22.5302 236.038 22.5302 236.038 22.5302C236.038 22.5302 236.038 22.5303 236.038 22.5303C236.038 22.5303 236.039 22.5305 236.039 22.5306C236.041 22.531 236.04 22.5307 236.042 22.5312C236.042 22.5313 236.043 22.5315 236.043 22.5316C236.044 22.5317 236.044 22.5319 236.045 22.532C236.047 22.5324 236.061 22.536 236.067 22.5376C236.074 22.5393 236.131 22.5535 236.157 22.5601C236.162 22.5614 236.168 22.5627 236.173 22.564C236.176 22.5647 236.178 22.5653 236.181 22.566C236.182 22.5664 236.184 22.5667 236.185 22.5671C236.186 22.5673 236.188 22.5678 236.189 22.5681C236.192 22.5687 236.196 22.5697 236.198 22.5702C236.198 22.5703 236.199 22.5704 236.199 22.5705C236.199 22.5706 236.2 22.5707 236.2 22.5708C236.201 22.5709 236.202 22.5712 236.202 22.5713C236.203 22.5714 236.203 22.5715 236.203 22.5716C236.204 22.5717 236.204 22.5718 236.204 22.5719C236.205 22.572 236.206 22.5724 236.207 22.5724C236.207 22.5726 236.21 22.5734 236.211 22.5736C236.212 22.5739 236.214 22.5744 236.216 22.5747C236.216 22.5748 236.216 22.5749 236.217 22.575C236.217 22.5751 236.218 22.5752 236.218 22.5753C236.218 22.5754 236.22 22.5758 236.22 22.5759C236.221 22.5759 236.221 22.576 236.221 22.5761C236.222 22.5762 236.222 22.5763 236.223 22.5764C236.225 22.5769 236.223 22.5765 236.225 22.577C236.231 22.5785 236.257 22.5851 236.264 22.5869C236.266 22.5873 236.268 22.5877 236.27 22.5882C236.271 22.5885 236.273 22.5891 236.275 22.5895C236.275 22.5896 236.276 22.5897 236.276 22.5898C236.277 22.5899 236.277 22.59 236.277 22.5901C236.278 22.5902 236.28 22.5907 236.28 22.5908C236.281 22.591 236.285 22.5919 236.285 22.5921C236.287 22.5926 236.294 22.5944 236.296 22.5949C236.297 22.595 236.297 22.5951 236.298 22.5952C236.298 22.5953 236.299 22.5954 236.299 22.5955C236.3 22.5957 236.3 22.5958 236.3 22.5959C236.301 22.596 236.301 22.5961 236.302 22.5962C236.302 22.5964 236.303 22.5965 236.303 22.5966C236.304 22.5967 236.304 22.5968 236.305 22.5969C236.306 22.5973 236.306 22.5973 236.307 22.5976C236.319 22.6006 236.341 22.6061 236.354 22.6094C236.371 22.6134 236.387 22.6176 236.405 22.622C236.44 22.6308 236.477 22.6401 236.517 22.6501L237.003 20.7099ZM233.707 23.9729L227.867 18.1329L226.453 19.5471L232.293 25.3871L233.707 23.9729ZM227.867 18.1329C227.867 18.1326 227.884 18.1499 227.899 18.1861C227.915 18.2235 227.92 18.2582 227.92 18.28H225.92C225.92 18.7759 226.118 19.2122 226.453 19.5471L227.867 18.1329ZM227.92 18.28C227.92 18.2758 227.92 18.2757 227.92 18.2788C227.919 18.282 227.918 18.2864 227.916 18.2911C227.915 18.2959 227.913 18.2988 227.912 18.2995C227.912 18.3001 227.914 18.2971 227.919 18.2908L226.401 16.9892C226.09 17.3523 225.92 17.795 225.92 18.28H227.92ZM227.867 18.3471C227.856 18.3579 227.833 18.3757 227.801 18.3885C227.771 18.4008 227.753 18.4 227.76 18.4V16.4C227.273 16.4 226.813 16.5731 226.453 16.9329L227.867 18.3471ZM227.76 18.4C227.767 18.4 227.749 18.4008 227.719 18.3885C227.687 18.3757 227.664 18.3579 227.653 18.3471L229.067 16.9329C228.707 16.5731 228.247 16.4 227.76 16.4V18.4ZM227.655 18.3495L233.535 24.1895L234.945 22.7705L229.065 16.9305L227.655 18.3495ZM233.533 24.1871C233.522 24.1763 233.504 24.1534 233.492 24.1214C233.479 24.0905 233.48 24.0727 233.48 24.08H235.48C235.48 23.5926 235.307 23.1327 234.947 22.7729L233.533 24.1871ZM233.48 24.08C233.48 24.0704 233.481 24.0593 233.483 24.0475C233.485 24.0357 233.489 24.0259 233.492 24.0186C233.498 24.0036 233.499 24.0075 233.481 24.0292L234.999 25.3308C235.29 24.9922 235.48 24.568 235.48 24.08H233.48ZM233.558 23.9489C233.519 23.9849 233.506 23.9879 233.52 23.9812C233.528 23.9776 233.542 23.972 233.562 23.9674C233.583 23.9628 233.606 23.96 233.63 23.96C233.682 23.96 233.715 23.9724 233.724 23.9762C233.729 23.9785 233.707 23.9694 233.659 23.9274L232.341 25.4326C232.669 25.7193 233.104 25.96 233.63 25.96C234.163 25.96 234.599 25.7132 234.922 25.4111L233.558 23.9489Z" fill="#0AABB1" mask="url(#path-1-outside-1_24_242)"/>
</svg>
